<mxfile host="app.diagrams.net" modified="2023-02-12T16:00:25.273Z" agent="5.0 (Windows NT 10.0; Win64; x64) AppleWebKit/537.36 (KHTML, like Gecko) Chrome/109.0.0.0 Safari/537.36 Edg/109.0.1518.78" etag="fBEsR-x9KPx56G8O82G-" version="20.8.20" type="github">
  <diagram name="第 1 页" id="vEYWSQjw0OYUdzgQtS94">
    <mxGraphModel dx="7093" dy="2820" grid="1" gridSize="10" guides="1" tooltips="1" connect="1" arrows="1" fold="1" page="1" pageScale="1" pageWidth="1169" pageHeight="827" math="0" shadow="0">
      <root>
        <mxCell id="0" />
        <mxCell id="1" parent="0" />
        <mxCell id="5Q56VZbvU2Ra5kJknDUj-1" value="&lt;p style=&quot;margin: 0px; margin-top: 4px; text-align: center; text-decoration: underline;&quot;&gt;&lt;font style=&quot;font-size: 30px;&quot;&gt;模块一&lt;/font&gt;&lt;/p&gt;&lt;hr&gt;&lt;p style=&quot;margin: 0px 0px 0px 8px; font-size: 30px;&quot;&gt;输入量：input_1 input_2&lt;/p&gt;&lt;p style=&quot;margin: 0px 0px 0px 8px; font-size: 30px;&quot;&gt;&lt;br&gt;&lt;/p&gt;&lt;p style=&quot;margin: 0px 0px 0px 8px; font-size: 30px;&quot;&gt;算法A&lt;/p&gt;&lt;p style=&quot;margin: 0px 0px 0px 8px; font-size: 30px;&quot;&gt;&lt;br&gt;&lt;/p&gt;&lt;p style=&quot;margin: 0px 0px 0px 8px; font-size: 30px;&quot;&gt;输出量：output_1 output_2&lt;/p&gt;" style="verticalAlign=middle;align=center;overflow=fill;fontSize=12;fontFamily=Helvetica;html=1;rounded=1;fontStyle=1;strokeWidth=3;fillColor=#E6FFCC;rotation=0;" vertex="1" parent="1">
          <mxGeometry x="374" y="1379" width="429" height="253" as="geometry" />
        </mxCell>
        <mxCell id="5Q56VZbvU2Ra5kJknDUj-2" value="Progress&#xa;reports" style="text;spacingTop=-5;align=center;rounded=1;" vertex="1" parent="1">
          <mxGeometry x="2092" y="889" width="30" height="20" as="geometry" />
        </mxCell>
        <mxCell id="5Q56VZbvU2Ra5kJknDUj-3" value="主循环" style="shape=process;whiteSpace=wrap;align=center;verticalAlign=middle;size=0.0475;fontStyle=1;strokeWidth=3;fillColor=#1ba1e2;rounded=1;fontSize=30;fontColor=#ffffff;strokeColor=#006EAF;" vertex="1" parent="1">
          <mxGeometry x="436" y="997" width="330" height="135" as="geometry" />
        </mxCell>
        <mxCell id="5Q56VZbvU2Ra5kJknDUj-4" value="次循环" style="shape=process;whiteSpace=wrap;align=center;verticalAlign=middle;size=0.0475;fontStyle=1;strokeWidth=3;fillColor=#d5e8d4;rounded=1;fontSize=30;strokeColor=#82b366;" vertex="1" parent="1">
          <mxGeometry x="1225" y="997" width="330" height="135" as="geometry" />
        </mxCell>
        <mxCell id="5Q56VZbvU2Ra5kJknDUj-5" value="次循环" style="shape=process;whiteSpace=wrap;align=center;verticalAlign=middle;size=0.0475;fontStyle=1;strokeWidth=3;fillColor=#d5e8d4;rounded=1;fontSize=30;strokeColor=#82b366;" vertex="1" parent="1">
          <mxGeometry x="2041" y="997" width="330" height="135" as="geometry" />
        </mxCell>
        <mxCell id="5Q56VZbvU2Ra5kJknDUj-6" value="......" style="shape=process;whiteSpace=wrap;align=center;verticalAlign=middle;size=0.0475;fontStyle=1;strokeWidth=3;fillColor=#d5e8d4;rounded=1;fontSize=30;strokeColor=#82b366;" vertex="1" parent="1">
          <mxGeometry x="2944" y="997" width="330" height="135" as="geometry" />
        </mxCell>
        <mxCell id="5Q56VZbvU2Ra5kJknDUj-7" value="" style="endArrow=none;html=1;rounded=0;fontSize=30;strokeWidth=5;" edge="1" parent="1">
          <mxGeometry width="50" height="50" relative="1" as="geometry">
            <mxPoint x="334" y="3045" as="sourcePoint" />
            <mxPoint x="338" y="957" as="targetPoint" />
          </mxGeometry>
        </mxCell>
        <mxCell id="5Q56VZbvU2Ra5kJknDUj-8" value="" style="endArrow=none;html=1;rounded=0;fontSize=30;strokeWidth=5;" edge="1" parent="1">
          <mxGeometry width="50" height="50" relative="1" as="geometry">
            <mxPoint x="3749" y="1208" as="sourcePoint" />
            <mxPoint x="59" y="1208" as="targetPoint" />
          </mxGeometry>
        </mxCell>
        <mxCell id="5Q56VZbvU2Ra5kJknDUj-9" value="" style="endArrow=none;html=1;rounded=0;fontSize=30;strokeWidth=5;" edge="1" parent="1">
          <mxGeometry width="50" height="50" relative="1" as="geometry">
            <mxPoint x="338" y="1207" as="sourcePoint" />
            <mxPoint x="63" y="973" as="targetPoint" />
          </mxGeometry>
        </mxCell>
        <mxCell id="5Q56VZbvU2Ra5kJknDUj-10" value="循环名称" style="text;html=1;strokeColor=none;fillColor=none;align=center;verticalAlign=middle;whiteSpace=wrap;rounded=0;fontSize=30;" vertex="1" parent="1">
          <mxGeometry x="180" y="1014" width="141" height="30" as="geometry" />
        </mxCell>
        <mxCell id="5Q56VZbvU2Ra5kJknDUj-11" value="时间" style="text;html=1;strokeColor=none;fillColor=none;align=center;verticalAlign=middle;whiteSpace=wrap;rounded=0;fontSize=30;" vertex="1" parent="1">
          <mxGeometry x="77" y="1116" width="141" height="30" as="geometry" />
        </mxCell>
        <mxCell id="5Q56VZbvU2Ra5kJknDUj-12" value="" style="shape=flexArrow;endArrow=classic;html=1;rounded=0;strokeWidth=5;fontSize=30;" edge="1" parent="1">
          <mxGeometry width="50" height="50" relative="1" as="geometry">
            <mxPoint x="192" y="1235" as="sourcePoint" />
            <mxPoint x="192" y="2979" as="targetPoint" />
          </mxGeometry>
        </mxCell>
        <mxCell id="5Q56VZbvU2Ra5kJknDUj-13" value="&lt;p style=&quot;margin: 0px; margin-top: 4px; text-align: center; text-decoration: underline;&quot;&gt;&lt;font style=&quot;font-size: 30px;&quot;&gt;模块二&lt;/font&gt;&lt;/p&gt;&lt;hr&gt;&lt;p style=&quot;margin: 0px 0px 0px 8px; font-size: 30px;&quot;&gt;输入量：input_3 input_4&lt;/p&gt;&lt;p style=&quot;margin: 0px 0px 0px 8px; font-size: 30px;&quot;&gt;input_b&lt;/p&gt;&lt;p style=&quot;margin: 0px 0px 0px 8px; font-size: 30px;&quot;&gt;&lt;br&gt;&lt;/p&gt;&lt;p style=&quot;margin: 0px 0px 0px 8px; font-size: 30px;&quot;&gt;算法B&lt;/p&gt;&lt;p style=&quot;margin: 0px 0px 0px 8px; font-size: 30px;&quot;&gt;&lt;br&gt;&lt;/p&gt;&lt;p style=&quot;margin: 0px 0px 0px 8px; font-size: 30px;&quot;&gt;输出量：output_3 output_4&lt;/p&gt;" style="verticalAlign=middle;align=center;overflow=fill;fontSize=12;fontFamily=Helvetica;html=1;rounded=1;fontStyle=1;strokeWidth=3;fillColor=#E6FFCC;rotation=0;" vertex="1" parent="1">
          <mxGeometry x="374" y="1745" width="429" height="253" as="geometry" />
        </mxCell>
        <mxCell id="5Q56VZbvU2Ra5kJknDUj-14" value="&lt;p style=&quot;margin: 0px; margin-top: 4px; text-align: center; text-decoration: underline;&quot;&gt;&lt;font style=&quot;font-size: 30px;&quot;&gt;模块三&lt;/font&gt;&lt;/p&gt;&lt;hr&gt;&lt;p style=&quot;margin: 0px 0px 0px 8px; font-size: 30px;&quot;&gt;输入量：input_5 input_6&lt;/p&gt;&lt;p style=&quot;margin: 0px 0px 0px 8px; font-size: 30px;&quot;&gt;&lt;br&gt;&lt;/p&gt;&lt;p style=&quot;margin: 0px 0px 0px 8px; font-size: 30px;&quot;&gt;算法C&lt;/p&gt;&lt;p style=&quot;margin: 0px 0px 0px 8px; font-size: 30px;&quot;&gt;&lt;br&gt;&lt;/p&gt;&lt;p style=&quot;margin: 0px 0px 0px 8px; font-size: 30px;&quot;&gt;输出量：output_5 output_6&lt;/p&gt;" style="verticalAlign=middle;align=center;overflow=fill;fontSize=12;fontFamily=Helvetica;html=1;rounded=1;fontStyle=1;strokeWidth=3;fillColor=#E6FFCC;rotation=0;" vertex="1" parent="1">
          <mxGeometry x="374" y="2111" width="429" height="253" as="geometry" />
        </mxCell>
        <mxCell id="5Q56VZbvU2Ra5kJknDUj-15" value="&lt;p style=&quot;margin: 0px; margin-top: 4px; text-align: center; text-decoration: underline;&quot;&gt;&lt;span style=&quot;font-size: 30px;&quot;&gt;......&lt;/span&gt;&lt;/p&gt;&lt;hr&gt;&lt;p style=&quot;margin: 0px 0px 0px 8px; font-size: 30px;&quot;&gt;......&lt;/p&gt;" style="verticalAlign=middle;align=center;overflow=fill;fontSize=12;fontFamily=Helvetica;html=1;rounded=1;fontStyle=1;strokeWidth=3;fillColor=#E6FFCC;rotation=0;" vertex="1" parent="1">
          <mxGeometry x="374" y="2497" width="429" height="113" as="geometry" />
        </mxCell>
        <mxCell id="5Q56VZbvU2Ra5kJknDUj-16" value="执行器件" style="whiteSpace=wrap;align=center;verticalAlign=middle;fontStyle=1;strokeWidth=3;fillColor=#1ba1e2;rounded=1;fontSize=30;fontColor=#ffffff;strokeColor=#006EAF;" vertex="1" parent="1">
          <mxGeometry x="380" y="2744" width="417" height="199" as="geometry" />
        </mxCell>
        <mxCell id="5Q56VZbvU2Ra5kJknDUj-17" value="" style="endArrow=classic;html=1;rounded=0;strokeWidth=5;fontSize=30;entryX=0.5;entryY=0;entryDx=0;entryDy=0;exitX=0.5;exitY=1;exitDx=0;exitDy=0;" edge="1" parent="1" source="5Q56VZbvU2Ra5kJknDUj-1" target="5Q56VZbvU2Ra5kJknDUj-13">
          <mxGeometry width="50" height="50" relative="1" as="geometry">
            <mxPoint x="1008" y="1425" as="sourcePoint" />
            <mxPoint x="1058" y="1375" as="targetPoint" />
          </mxGeometry>
        </mxCell>
        <mxCell id="5Q56VZbvU2Ra5kJknDUj-18" value="" style="endArrow=classic;html=1;rounded=0;strokeWidth=5;fontSize=30;entryX=0.5;entryY=0;entryDx=0;entryDy=0;exitX=0.5;exitY=1;exitDx=0;exitDy=0;" edge="1" parent="1" source="5Q56VZbvU2Ra5kJknDUj-13" target="5Q56VZbvU2Ra5kJknDUj-14">
          <mxGeometry width="50" height="50" relative="1" as="geometry">
            <mxPoint x="596" y="2020" as="sourcePoint" />
            <mxPoint x="596" y="2133" as="targetPoint" />
          </mxGeometry>
        </mxCell>
        <mxCell id="5Q56VZbvU2Ra5kJknDUj-19" value="" style="endArrow=classic;html=1;rounded=0;strokeWidth=5;fontSize=30;entryX=0.5;entryY=0;entryDx=0;entryDy=0;exitX=0.5;exitY=1;exitDx=0;exitDy=0;" edge="1" parent="1" source="5Q56VZbvU2Ra5kJknDUj-14" target="5Q56VZbvU2Ra5kJknDUj-15">
          <mxGeometry width="50" height="50" relative="1" as="geometry">
            <mxPoint x="596" y="2401" as="sourcePoint" />
            <mxPoint x="596" y="2514" as="targetPoint" />
          </mxGeometry>
        </mxCell>
        <mxCell id="5Q56VZbvU2Ra5kJknDUj-20" value="" style="endArrow=classic;html=1;rounded=0;strokeWidth=5;fontSize=30;exitX=0.5;exitY=1;exitDx=0;exitDy=0;" edge="1" parent="1" source="5Q56VZbvU2Ra5kJknDUj-15" target="5Q56VZbvU2Ra5kJknDUj-16">
          <mxGeometry width="50" height="50" relative="1" as="geometry">
            <mxPoint x="595" y="2645" as="sourcePoint" />
            <mxPoint x="595" y="2758" as="targetPoint" />
          </mxGeometry>
        </mxCell>
        <mxCell id="5Q56VZbvU2Ra5kJknDUj-21" value="" style="endArrow=classic;html=1;rounded=0;strokeWidth=5;fontSize=30;exitX=1;exitY=0.5;exitDx=0;exitDy=0;entryX=1;entryY=0.5;entryDx=0;entryDy=0;" edge="1" parent="1" source="5Q56VZbvU2Ra5kJknDUj-15" target="5Q56VZbvU2Ra5kJknDUj-1">
          <mxGeometry width="50" height="50" relative="1" as="geometry">
            <mxPoint x="962" y="2555" as="sourcePoint" />
            <mxPoint x="902" y="1476" as="targetPoint" />
            <Array as="points">
              <mxPoint x="970" y="2554" />
              <mxPoint x="970" y="1506" />
            </Array>
          </mxGeometry>
        </mxCell>
        <mxCell id="5Q56VZbvU2Ra5kJknDUj-22" value="&lt;font style=&quot;font-size: 40px;&quot;&gt;循环&lt;/font&gt;" style="edgeLabel;html=1;align=center;verticalAlign=middle;resizable=0;points=[];fontSize=30;" vertex="1" connectable="0" parent="5Q56VZbvU2Ra5kJknDUj-21">
          <mxGeometry x="0.1174" y="-1" relative="1" as="geometry">
            <mxPoint as="offset" />
          </mxGeometry>
        </mxCell>
        <mxCell id="5Q56VZbvU2Ra5kJknDUj-23" value="接收A传感器信号" style="whiteSpace=wrap;align=center;verticalAlign=middle;fontStyle=1;strokeWidth=3;fillColor=#FFFFCC;rounded=1;fontSize=30;" vertex="1" parent="1">
          <mxGeometry x="1229.75" y="1373" width="296.5" height="199" as="geometry" />
        </mxCell>
        <mxCell id="5Q56VZbvU2Ra5kJknDUj-24" value="校验" style="whiteSpace=wrap;align=center;verticalAlign=middle;fontStyle=1;strokeWidth=3;fillColor=#FFFFCC;rounded=1;fontSize=30;" vertex="1" parent="1">
          <mxGeometry x="1223" y="1745" width="305.5" height="199" as="geometry" />
        </mxCell>
        <mxCell id="5Q56VZbvU2Ra5kJknDUj-25" value="" style="endArrow=classic;html=1;rounded=0;strokeWidth=5;fontSize=30;exitX=0.5;exitY=1;exitDx=0;exitDy=0;entryX=0.5;entryY=0;entryDx=0;entryDy=0;" edge="1" parent="1" source="5Q56VZbvU2Ra5kJknDUj-23" target="5Q56VZbvU2Ra5kJknDUj-24">
          <mxGeometry width="50" height="50" relative="1" as="geometry">
            <mxPoint x="1406" y="1617" as="sourcePoint" />
            <mxPoint x="1485" y="1681" as="targetPoint" />
          </mxGeometry>
        </mxCell>
        <mxCell id="5Q56VZbvU2Ra5kJknDUj-26" value="" style="endArrow=classic;html=1;rounded=0;strokeWidth=5;fontSize=30;exitX=0;exitY=0.5;exitDx=0;exitDy=0;entryX=0.5;entryY=0;entryDx=0;entryDy=0;" edge="1" parent="1" source="5Q56VZbvU2Ra5kJknDUj-24" target="5Q56VZbvU2Ra5kJknDUj-1">
          <mxGeometry width="50" height="50" relative="1" as="geometry">
            <mxPoint x="1182.5" y="1843.5" as="sourcePoint" />
            <mxPoint x="587" y="1300" as="targetPoint" />
            <Array as="points">
              <mxPoint x="1120" y="1844" />
              <mxPoint x="1120" y="1305" />
              <mxPoint x="589" y="1305" />
            </Array>
          </mxGeometry>
        </mxCell>
        <mxCell id="5Q56VZbvU2Ra5kJknDUj-27" value="&lt;font style=&quot;font-size: 40px;&quot;&gt;input_2&lt;/font&gt;" style="edgeLabel;html=1;align=center;verticalAlign=middle;resizable=0;points=[];fontSize=30;" vertex="1" connectable="0" parent="5Q56VZbvU2Ra5kJknDUj-26">
          <mxGeometry x="0.3967" y="7" relative="1" as="geometry">
            <mxPoint as="offset" />
          </mxGeometry>
        </mxCell>
        <mxCell id="5Q56VZbvU2Ra5kJknDUj-28" value="" style="endArrow=classic;html=1;rounded=0;strokeWidth=5;fontSize=30;exitX=1;exitY=0.5;exitDx=0;exitDy=0;entryX=1;entryY=0.5;entryDx=0;entryDy=0;" edge="1" parent="1" source="5Q56VZbvU2Ra5kJknDUj-24" target="5Q56VZbvU2Ra5kJknDUj-23">
          <mxGeometry width="50" height="50" relative="1" as="geometry">
            <mxPoint x="1805" y="1783" as="sourcePoint" />
            <mxPoint x="1754" y="1433" as="targetPoint" />
            <Array as="points">
              <mxPoint x="1709" y="1845" />
              <mxPoint x="1709" y="1473" />
            </Array>
          </mxGeometry>
        </mxCell>
        <mxCell id="5Q56VZbvU2Ra5kJknDUj-29" value="&lt;font style=&quot;font-size: 40px;&quot;&gt;循环&lt;/font&gt;" style="edgeLabel;html=1;align=center;verticalAlign=middle;resizable=0;points=[];fontSize=30;" vertex="1" connectable="0" parent="5Q56VZbvU2Ra5kJknDUj-28">
          <mxGeometry x="0.1303" y="1" relative="1" as="geometry">
            <mxPoint y="1" as="offset" />
          </mxGeometry>
        </mxCell>
        <mxCell id="5Q56VZbvU2Ra5kJknDUj-30" value="接收B传感器信号" style="whiteSpace=wrap;align=center;verticalAlign=middle;fontStyle=1;strokeWidth=3;fillColor=#FFFFCC;rounded=1;fontSize=30;" vertex="1" parent="1">
          <mxGeometry x="2062.75" y="1373" width="296.5" height="199" as="geometry" />
        </mxCell>
        <mxCell id="5Q56VZbvU2Ra5kJknDUj-31" value="数据平滑" style="whiteSpace=wrap;align=center;verticalAlign=middle;fontStyle=1;strokeWidth=3;fillColor=#FFFFCC;rounded=1;fontSize=30;" vertex="1" parent="1">
          <mxGeometry x="2058.25" y="1745" width="305.5" height="199" as="geometry" />
        </mxCell>
        <mxCell id="5Q56VZbvU2Ra5kJknDUj-32" value="" style="endArrow=classic;html=1;rounded=0;strokeWidth=5;fontSize=30;exitX=0.5;exitY=1;exitDx=0;exitDy=0;entryX=0.5;entryY=0;entryDx=0;entryDy=0;" edge="1" parent="1" source="5Q56VZbvU2Ra5kJknDUj-30" target="5Q56VZbvU2Ra5kJknDUj-31">
          <mxGeometry width="50" height="50" relative="1" as="geometry">
            <mxPoint x="2239" y="1617" as="sourcePoint" />
            <mxPoint x="2318" y="1681" as="targetPoint" />
          </mxGeometry>
        </mxCell>
        <mxCell id="5Q56VZbvU2Ra5kJknDUj-33" value="" style="endArrow=classic;html=1;rounded=0;strokeWidth=5;fontSize=30;exitX=1;exitY=0.5;exitDx=0;exitDy=0;entryX=1;entryY=0.5;entryDx=0;entryDy=0;" edge="1" parent="1" source="5Q56VZbvU2Ra5kJknDUj-37" target="5Q56VZbvU2Ra5kJknDUj-30">
          <mxGeometry width="50" height="50" relative="1" as="geometry">
            <mxPoint x="2638" y="1783" as="sourcePoint" />
            <mxPoint x="2587" y="1433" as="targetPoint" />
            <Array as="points">
              <mxPoint x="2542" y="2228" />
              <mxPoint x="2542" y="1473" />
            </Array>
          </mxGeometry>
        </mxCell>
        <mxCell id="5Q56VZbvU2Ra5kJknDUj-34" value="&lt;font style=&quot;font-size: 40px;&quot;&gt;循环&lt;/font&gt;" style="edgeLabel;html=1;align=center;verticalAlign=middle;resizable=0;points=[];fontSize=30;" vertex="1" connectable="0" parent="5Q56VZbvU2Ra5kJknDUj-33">
          <mxGeometry x="0.1303" y="1" relative="1" as="geometry">
            <mxPoint y="73" as="offset" />
          </mxGeometry>
        </mxCell>
        <mxCell id="5Q56VZbvU2Ra5kJknDUj-35" style="edgeStyle=orthogonalEdgeStyle;rounded=0;orthogonalLoop=1;jettySize=auto;html=1;strokeWidth=5;fontSize=30;entryX=1;entryY=0.5;entryDx=0;entryDy=0;" edge="1" parent="1" source="5Q56VZbvU2Ra5kJknDUj-37" target="5Q56VZbvU2Ra5kJknDUj-13">
          <mxGeometry relative="1" as="geometry">
            <mxPoint x="899" y="1878" as="targetPoint" />
            <Array as="points">
              <mxPoint x="885" y="2227" />
              <mxPoint x="885" y="1871" />
            </Array>
          </mxGeometry>
        </mxCell>
        <mxCell id="5Q56VZbvU2Ra5kJknDUj-36" value="&lt;font style=&quot;font-size: 40px;&quot;&gt;input_b&lt;/font&gt;" style="edgeLabel;html=1;align=center;verticalAlign=middle;resizable=0;points=[];fontSize=30;" vertex="1" connectable="0" parent="5Q56VZbvU2Ra5kJknDUj-35">
          <mxGeometry x="-0.2064" y="5" relative="1" as="geometry">
            <mxPoint x="1" as="offset" />
          </mxGeometry>
        </mxCell>
        <mxCell id="5Q56VZbvU2Ra5kJknDUj-37" value="数据融合" style="whiteSpace=wrap;align=center;verticalAlign=middle;fontStyle=1;strokeWidth=3;fillColor=#FFFFCC;rounded=1;fontSize=30;" vertex="1" parent="1">
          <mxGeometry x="2058.25" y="2128" width="305.5" height="199" as="geometry" />
        </mxCell>
        <mxCell id="5Q56VZbvU2Ra5kJknDUj-38" value="" style="endArrow=classic;html=1;rounded=0;strokeWidth=5;fontSize=30;exitX=0.5;exitY=1;exitDx=0;exitDy=0;entryX=0.5;entryY=0;entryDx=0;entryDy=0;" edge="1" parent="1" source="5Q56VZbvU2Ra5kJknDUj-31" target="5Q56VZbvU2Ra5kJknDUj-37">
          <mxGeometry width="50" height="50" relative="1" as="geometry">
            <mxPoint x="2209.89" y="1998" as="sourcePoint" />
            <mxPoint x="2209.89" y="2171" as="targetPoint" />
          </mxGeometry>
        </mxCell>
        <mxCell id="5Q56VZbvU2Ra5kJknDUj-39" value="......" style="whiteSpace=wrap;align=center;verticalAlign=middle;fontStyle=1;strokeWidth=3;fillColor=#FFFFCC;rounded=1;fontSize=30;" vertex="1" parent="1">
          <mxGeometry x="2967.75" y="1379" width="296.5" height="199" as="geometry" />
        </mxCell>
        <mxCell id="5Q56VZbvU2Ra5kJknDUj-40" value="......" style="whiteSpace=wrap;align=center;verticalAlign=middle;fontStyle=1;strokeWidth=3;fillColor=#FFFFCC;rounded=1;fontSize=30;" vertex="1" parent="1">
          <mxGeometry x="2961" y="1751" width="305.5" height="199" as="geometry" />
        </mxCell>
        <mxCell id="5Q56VZbvU2Ra5kJknDUj-41" value="" style="endArrow=classic;html=1;rounded=0;strokeWidth=5;fontSize=30;exitX=0.5;exitY=1;exitDx=0;exitDy=0;entryX=0.5;entryY=0;entryDx=0;entryDy=0;" edge="1" parent="1" source="5Q56VZbvU2Ra5kJknDUj-39" target="5Q56VZbvU2Ra5kJknDUj-40">
          <mxGeometry width="50" height="50" relative="1" as="geometry">
            <mxPoint x="3144" y="1623" as="sourcePoint" />
            <mxPoint x="3223" y="1687" as="targetPoint" />
          </mxGeometry>
        </mxCell>
        <mxCell id="5Q56VZbvU2Ra5kJknDUj-42" value="" style="endArrow=classic;html=1;rounded=0;strokeWidth=5;fontSize=30;exitX=1;exitY=0.5;exitDx=0;exitDy=0;entryX=1;entryY=0.5;entryDx=0;entryDy=0;" edge="1" parent="1" source="5Q56VZbvU2Ra5kJknDUj-40" target="5Q56VZbvU2Ra5kJknDUj-39">
          <mxGeometry width="50" height="50" relative="1" as="geometry">
            <mxPoint x="3543" y="1789" as="sourcePoint" />
            <mxPoint x="3492" y="1439" as="targetPoint" />
            <Array as="points">
              <mxPoint x="3447" y="1851" />
              <mxPoint x="3447" y="1479" />
            </Array>
          </mxGeometry>
        </mxCell>
        <mxCell id="5Q56VZbvU2Ra5kJknDUj-43" value="&lt;font style=&quot;font-size: 40px;&quot;&gt;循环&lt;/font&gt;" style="edgeLabel;html=1;align=center;verticalAlign=middle;resizable=0;points=[];fontSize=30;" vertex="1" connectable="0" parent="5Q56VZbvU2Ra5kJknDUj-42">
          <mxGeometry x="0.1303" y="1" relative="1" as="geometry">
            <mxPoint y="33" as="offset" />
          </mxGeometry>
        </mxCell>
      </root>
    </mxGraphModel>
  </diagram>
</mxfile>
